<svg data-v-fde0c5aa="" xmlns="http://www.w3.org/2000/svg" viewBox="0 0 300 300" class="iconLeft"><!----><defs data-v-fde0c5aa=""><!----></defs><rect data-v-fde0c5aa="" fill="transparent" x="0" y="0" width="300px" height="300px" class="logo-background-square"></rect><defs data-v-fde0c5aa=""><!----></defs><g data-v-fde0c5aa="" id="77f430a8-9c25-4509-a2ec-f31726719933" fill="#2e3034" transform="matrix(1.7129294872283936,0,0,1.7129294872283936,70.73842713313617,134.9433499777116)"><path d="M4.37 13.92L4.37 13.92L4.37 13.92Q3.29 13.92 2.49 13.34L2.49 13.34L2.49 13.34Q1.69 12.77 1.41 11.93L1.41 11.93L2.34 11.59L2.34 11.59Q2.60 12.25 3.14 12.64L3.14 12.64L3.14 12.64Q3.67 13.03 4.37 13.03L4.37 13.03L4.37 13.03Q5.21 13.03 5.68 12.57L5.68 12.57L5.68 12.57Q6.16 12.10 6.16 11.23L6.16 11.23L6.16 11.23Q6.16 9.77 4.21 8.93L4.21 8.93L4.21 8.93Q3.68 8.69 3.30 8.48L3.30 8.48L3.30 8.48Q2.91 8.26 2.51 7.92L2.51 7.92L2.51 7.92Q2.10 7.59 1.89 7.11L1.89 7.11L1.89 7.11Q1.68 6.64 1.68 6.06L1.68 6.06L1.68 6.06Q1.68 5.10 2.38 4.44L2.38 4.44L2.38 4.44Q3.08 3.78 4.26 3.78L4.26 3.78L4.26 3.78Q5.19 3.78 5.85 4.21L5.85 4.21L5.85 4.21Q6.51 4.65 6.69 5.33L6.69 5.33L5.78 5.64L5.78 5.64Q5.63 5.22 5.22 4.94L5.22 4.94L5.22 4.94Q4.82 4.66 4.23 4.66L4.23 4.66L4.23 4.66Q3.51 4.66 3.10 5.04L3.10 5.04L3.10 5.04Q2.69 5.42 2.69 6.05L2.69 6.05L2.69 6.05Q2.69 6.75 3.20 7.18L3.20 7.18L3.20 7.18Q3.71 7.60 4.68 8.02L4.68 8.02L4.68 8.02Q5.18 8.25 5.57 8.49L5.57 8.49L5.57 8.49Q5.95 8.74 6.34 9.11L6.34 9.11L6.34 9.11Q6.73 9.48 6.95 10.01L6.95 10.01L6.95 10.01Q7.17 10.54 7.17 11.20L7.17 11.20L7.17 11.20Q7.17 12.47 6.40 13.20L6.40 13.20L6.40 13.20Q5.63 13.92 4.37 13.92ZM12.49 13.92L12.49 13.92L12.49 13.92Q11.33 13.92 10.65 13.29L10.65 13.29L10.65 13.29Q9.97 12.67 9.97 11.49L9.97 11.49L9.97 11.49Q9.97 10.33 10.74 9.73L10.74 9.73L10.74 9.73Q11.51 9.13 12.66 9.13L12.66 9.13L12.66 9.13Q13.73 9.13 14.67 9.63L14.67 9.63L14.67 9.03L14.67 9.03Q14.67 7.28 13.10 7.28L13.10 7.28L13.10 7.28Q12.05 7.28 10.84 8.05L10.84 8.05L10.56 7.21L10.56 7.21Q11.86 6.43 13.20 6.43L13.20 6.43L13.20 6.43Q13.64 6.43 14.01 6.53L14.01 6.53L14.01 6.53Q14.39 6.64 14.76 6.90L14.76 6.90L14.76 6.90Q15.13 7.15 15.36 7.67L15.36 7.67L15.36 7.67Q15.58 8.18 15.58 8.90L15.58 8.90L15.58 13.75L14.67 13.75L14.67 13.05L14.67 13.05Q13.71 13.92 12.49 13.92ZM12.59 13.06L12.59 13.06L12.59 13.06Q13.78 13.06 14.67 11.96L14.67 11.96L14.67 10.57L14.67 10.57Q13.79 9.98 12.75 9.98L12.75 9.98L12.75 9.98Q11.94 9.98 11.41 10.37L11.41 10.37L11.41 10.37Q10.88 10.75 10.88 11.49L10.88 11.49L10.88 11.49Q10.88 12.21 11.33 12.64L11.33 12.64L11.33 12.64Q11.77 13.06 12.59 13.06ZM22.05 3.64L22.05 12.87L24.02 12.87L24.02 13.75L19.10 13.75L19.10 12.87L21.07 12.87L21.07 4.52L19.32 4.52L18.89 3.64L22.05 3.64ZM33.25 9.88L33.25 9.88L33.25 9.88Q33.25 10.26 33.22 10.57L33.22 10.57L28.15 10.57L28.15 10.57Q28.29 11.72 28.87 12.36L28.87 12.36L28.87 12.36Q29.44 13.01 30.37 13.01L30.37 13.01L30.37 13.01Q31.28 13.01 32.07 12.45L32.07 12.45L32.61 13.10L32.61 13.10Q31.57 13.92 30.32 13.92L30.32 13.92L30.32 13.92Q28.85 13.92 27.99 12.83L27.99 12.83L27.99 12.83Q27.12 11.75 27.12 10.16L27.12 10.16L27.12 10.16Q27.12 8.40 27.99 7.41L27.99 7.41L27.99 7.41Q28.85 6.43 30.32 6.43L30.32 6.43L30.32 6.43Q31.60 6.43 32.42 7.30L32.42 7.30L32.42 7.30Q33.25 8.18 33.25 9.88ZM28.13 9.69L28.13 9.69L32.26 9.69L32.26 9.69Q32.24 8.39 31.66 7.85L31.66 7.85L31.66 7.85Q31.08 7.31 30.32 7.31L30.32 7.31L30.32 7.31Q29.29 7.31 28.73 7.94L28.73 7.94L28.73 7.94Q28.18 8.57 28.13 9.69ZM38.74 13.92L38.74 13.92L38.74 13.92Q38.02 13.92 37.34 13.57L37.34 13.57L37.34 13.57Q36.67 13.23 36.19 12.67L36.19 12.67L36.88 12.07L36.88 12.07Q37.73 13.05 38.82 13.05L38.82 13.05L38.82 13.05Q39.47 13.05 39.89 12.78L39.89 12.78L39.89 12.78Q40.31 12.50 40.31 12.01L40.31 12.01L40.31 12.01Q40.31 11.70 40.16 11.46L40.16 11.46L40.16 11.46Q40.01 11.21 39.70 11.01L39.70 11.01L39.70 11.01Q39.38 10.81 39.14 10.70L39.14 10.70L39.14 10.70Q38.89 10.58 38.44 10.42L38.44 10.42L38.44 10.42Q37.91 10.21 37.58 10.04L37.58 10.04L37.58 10.04Q37.25 9.87 36.90 9.62L36.90 9.62L36.90 9.62Q36.55 9.37 36.39 9.02L36.39 9.02L36.39 9.02Q36.22 8.68 36.22 8.25L36.22 8.25L36.22 8.25Q36.22 7.43 36.89 6.93L36.89 6.93L36.89 6.93Q37.56 6.43 38.61 6.43L38.61 6.43L38.61 6.43Q40.08 6.43 41.02 7.52L41.02 7.52L40.38 8.06L40.38 8.06Q39.58 7.29 38.58 7.29L38.58 7.29L38.58 7.29Q37.93 7.29 37.53 7.55L37.53 7.55L37.53 7.55Q37.14 7.80 37.14 8.23L37.14 8.23L37.14 8.23Q37.14 8.44 37.25 8.62L37.25 8.62L37.25 8.62Q37.35 8.81 37.48 8.93L37.48 8.93L37.48 8.93Q37.60 9.04 37.88 9.19L37.88 9.19L37.88 9.19Q38.16 9.34 38.33 9.40L38.33 9.40L38.33 9.40Q38.50 9.46 38.86 9.60L38.86 9.60L38.86 9.60Q39.42 9.81 39.73 9.96L39.73 9.96L39.73 9.96Q40.03 10.11 40.44 10.39L40.44 10.39L40.44 10.39Q40.85 10.67 41.04 11.05L41.04 11.05L41.04 11.05Q41.23 11.44 41.23 11.96L41.23 11.96L41.23 11.96Q41.23 12.85 40.56 13.38L40.56 13.38L40.56 13.38Q39.89 13.92 38.74 13.92ZM45.58 13.75L44.60 13.75L44.60 3.95L47.42 3.95L47.42 3.95Q49.04 3.95 49.78 4.78L49.78 4.78L49.78 4.78Q50.51 5.61 50.51 6.83L50.51 6.83L50.51 6.83Q50.51 7.97 49.74 8.83L49.74 8.83L49.74 8.83Q48.97 9.70 47.42 9.70L47.42 9.70L45.58 9.70L45.58 13.75ZM45.58 4.83L45.58 8.82L47.50 8.82L47.50 8.82Q48.57 8.82 49.07 8.23L49.07 8.23L49.07 8.23Q49.57 7.64 49.57 6.83L49.57 6.83L49.57 6.83Q49.57 6.03 49.09 5.43L49.09 5.43L49.09 5.43Q48.61 4.83 47.50 4.83L47.50 4.83L45.58 4.83ZM54.26 13.75L53.28 13.75L53.28 4.10L54.26 3.64L54.26 7.39L54.26 7.39Q54.92 6.43 56.20 6.43L56.20 6.43L56.20 6.43Q57.57 6.43 58.21 7.22L58.21 7.22L58.21 7.22Q58.84 8.02 58.84 9.79L58.84 9.79L58.84 13.75L57.86 13.75L57.86 9.38L57.86 9.38Q57.86 8.30 57.39 7.81L57.39 7.81L57.39 7.81Q56.91 7.31 56.11 7.31L56.11 7.31L56.11 7.31Q54.26 7.31 54.26 9.35L54.26 9.35L54.26 13.75ZM67.08 12.92L67.08 12.92L67.08 12.92Q66.18 13.92 64.68 13.92L64.68 13.92L64.68 13.92Q63.18 13.92 62.28 12.93L62.28 12.93L62.28 12.93Q61.38 11.94 61.38 10.18L61.38 10.18L61.38 10.18Q61.38 8.43 62.28 7.43L62.28 7.43L62.28 7.43Q63.18 6.43 64.68 6.43L64.68 6.43L64.68 6.43Q66.18 6.43 67.08 7.41L67.08 7.41L67.08 7.41Q67.98 8.40 67.98 10.16L67.98 10.16L67.98 10.16Q67.98 11.91 67.08 12.92ZM64.68 13.03L64.68 13.03L64.68 13.03Q65.76 13.03 66.36 12.27L66.36 12.27L66.36 12.27Q66.96 11.51 66.96 10.16L66.96 10.16L66.96 10.16Q66.96 8.81 66.37 8.06L66.37 8.06L66.37 8.06Q65.79 7.31 64.68 7.31L64.68 7.31L64.68 7.31Q63.56 7.31 62.98 8.04L62.98 8.04L62.98 8.04Q62.40 8.78 62.40 10.18L62.40 10.18L62.40 10.18Q62.40 11.54 62.99 12.29L62.99 12.29L62.99 12.29Q63.57 13.03 64.68 13.03ZM73.44 6.43L73.44 6.43L73.44 6.43Q74.82 6.43 75.45 7.22L75.45 7.22L75.45 7.22Q76.09 8.02 76.09 9.79L76.09 9.79L76.09 13.75L75.11 13.75L75.11 9.38L75.11 9.38Q75.11 8.30 74.63 7.81L74.63 7.81L74.63 7.81Q74.16 7.31 73.36 7.31L73.36 7.31L73.36 7.31Q71.51 7.31 71.51 9.35L71.51 9.35L71.51 13.75L70.53 13.75L70.53 6.59L71.46 6.59L71.46 7.45L71.46 7.45Q72.13 6.43 73.44 6.43ZM84.99 9.88L84.99 9.88L84.99 9.88Q84.99 10.26 84.97 10.57L84.97 10.57L79.90 10.57L79.90 10.57Q80.04 11.72 80.61 12.36L80.61 12.36L80.61 12.36Q81.19 13.01 82.11 13.01L82.11 13.01L82.11 13.01Q83.02 13.01 83.82 12.45L83.82 12.45L84.35 13.10L84.35 13.10Q83.31 13.92 82.07 13.92L82.07 13.92L82.07 13.92Q80.60 13.92 79.73 12.83L79.73 12.83L79.73 12.83Q78.86 11.75 78.86 10.16L78.86 10.16L78.86 10.16Q78.86 8.40 79.73 7.41L79.73 7.41L79.73 7.41Q80.60 6.43 82.07 6.43L82.07 6.43L82.07 6.43Q83.34 6.43 84.17 7.30L84.17 7.30L84.17 7.30Q84.99 8.18 84.99 9.88ZM79.87 9.69L79.87 9.69L84 9.69L84 9.69Q83.99 8.39 83.41 7.85L83.41 7.85L83.41 7.85Q82.82 7.31 82.07 7.31L82.07 7.31L82.07 7.31Q81.03 7.31 80.48 7.94L80.48 7.94L80.48 7.94Q79.93 8.57 79.87 9.69ZM91.17 13.68L91.17 13.68L91.17 13.68Q90.92 13.94 90.55 13.94L90.55 13.94L90.55 13.94Q90.19 13.94 89.93 13.68L89.93 13.68L89.93 13.68Q89.67 13.41 89.67 13.06L89.67 13.06L89.67 13.06Q89.67 12.71 89.93 12.45L89.93 12.45L89.93 12.45Q90.19 12.18 90.55 12.18L90.55 12.18L90.55 12.18Q90.92 12.18 91.17 12.45L91.17 12.45L91.17 12.45Q91.43 12.71 91.43 13.06L91.43 13.06L91.43 13.06Q91.43 13.41 91.17 13.68ZM98.73 13.92L98.73 13.92L98.73 13.92Q97.57 13.92 96.89 13.29L96.89 13.29L96.89 13.29Q96.21 12.67 96.21 11.49L96.21 11.49L96.21 11.49Q96.21 10.33 96.98 9.73L96.98 9.73L96.98 9.73Q97.75 9.13 98.90 9.13L98.90 9.13L98.90 9.13Q99.97 9.13 100.91 9.63L100.91 9.63L100.91 9.03L100.91 9.03Q100.91 7.28 99.34 7.28L99.34 7.28L99.34 7.28Q98.29 7.28 97.08 8.05L97.08 8.05L96.80 7.21L96.80 7.21Q98.10 6.43 99.44 6.43L99.44 6.43L99.44 6.43Q99.88 6.43 100.25 6.53L100.25 6.53L100.25 6.53Q100.63 6.64 101.00 6.90L101.00 6.90L101.00 6.90Q101.37 7.15 101.60 7.67L101.60 7.67L101.60 7.67Q101.82 8.18 101.82 8.90L101.82 8.90L101.82 13.75L100.91 13.75L100.91 13.05L100.91 13.05Q99.95 13.92 98.73 13.92ZM98.83 13.06L98.83 13.06L98.83 13.06Q100.02 13.06 100.91 11.96L100.91 11.96L100.91 10.57L100.91 10.57Q100.03 9.98 98.99 9.98L98.99 9.98L98.99 9.98Q98.18 9.98 97.65 10.37L97.65 10.37L97.65 10.37Q97.12 10.75 97.12 11.49L97.12 11.49L97.12 11.49Q97.12 12.21 97.57 12.64L97.57 12.64L97.57 12.64Q98.01 13.06 98.83 13.06ZM108.49 4.94L108.49 4.94L108.49 4.94Q108.30 5.12 108.02 5.12L108.02 5.12L108.02 5.12Q107.74 5.12 107.56 4.94L107.56 4.94L107.56 4.94Q107.38 4.76 107.38 4.48L107.38 4.48L107.38 4.48Q107.38 4.20 107.57 4.00L107.57 4.00L107.57 4.00Q107.76 3.81 108.02 3.81L108.02 3.81L108.02 3.81Q108.30 3.81 108.49 4.00L108.49 4.00L108.49 4.00Q108.67 4.20 108.67 4.48L108.67 4.48L108.67 4.48Q108.67 4.76 108.49 4.94ZM108.51 6.59L108.51 12.87L110.49 12.87L110.49 13.75L105.56 13.75L105.56 12.87L107.53 12.87L107.53 7.48L105.56 7.48L105.56 6.59L108.51 6.59Z"></path></g><defs data-v-fde0c5aa=""><!----></defs><g data-v-fde0c5aa="" id="5abf055a-d049-46ee-8062-037bdf66c39d" stroke="none" fill="#488eff" transform="matrix(0.2876604199409485,0,0,0.2876604199409485,35.69387231628141,135.61697954557394)"><path d="M84.292 69.658l-21.02-48.412c-1.514-3.487-5.744-6.365-9.586-6.6a5.948 5.948 0 0 0 2.277-4.682 5.964 5.964 0 1 0-11.928 0c0 1.9.893 3.589 2.276 4.681-3.846.228-8.087 3.108-9.604 6.601L15.69 69.658c-1.581 3.64-.472 4.434 2.464 1.766 0 0 8.302-7.543 24.096-9.538.413 3.012.829 6.001 1.238 8.879.948 6.679 1.786 12.286 2.425 16.214.353 2.166.648 3.849.879 5.001.132.658.245 1.156.346 1.522.076.277.149.498.232.691C47.934 95.525 49.1 96 50.002 96c.925 0 2.106-.49 2.65-1.865a5.67 5.67 0 0 0 .21-.663c.095-.36.203-.853.33-1.505.225-1.149.515-2.828.863-4.989.636-3.944 1.472-9.547 2.42-16.205.413-2.904.834-5.911 1.25-8.933 16.495 1.904 24.256 9.418 24.256 9.418 2.851 2.76 3.89 2.04 2.311-1.6zm-34.29 23.576c-.759 0-6.424-42.984-8.657-61.918-5.829 7.948-13.637 20.374-13.891 20.374l-.004-.001c-.308-.181 12.688-28.641 13.921-30.735.28-.475.608-.83.966-1.087 1.921-1.774 4.987-2.513 7.665-2.513 2.707 0 5.809.755 7.727 2.57.327.252.628.589.888 1.029.023.041.054.094.085.153.16.257.299.529.417.815 2.706 5.458 13.702 29.602 13.419 29.768l-.004.001c-.255 0-8.055-12.417-13.882-20.363-2.256 18.94-7.965 61.907-8.65 61.907zm-.003-86.686a3.25 3.25 0 1 1 .002 6.498 3.25 3.25 0 0 1-.002-6.498z"></path></g><!----></svg>